<?xml version="1.0" encoding="UTF-8" standalone="no"?>
<!DOCTYPE svg PUBLIC "-//W3C//DTD SVG 1.1//EN" "http://www.w3.org/Graphics/SVG/1.1/DTD/svg11.dtd">
<svg width="100%" height="100%" viewBox="0 0 320 320" version="1.1" xmlns="http://www.w3.org/2000/svg" xmlns:xlink="http://www.w3.org/1999/xlink" xml:space="preserve" xmlns:serif="http://www.serif.com/" style="fill-rule:evenodd;clip-rule:evenodd;stroke-linejoin:round;stroke-miterlimit:2;">
    <g id="Tavola-da-disegno1" serif:id="Tavola da disegno1" transform="matrix(0.709251,0,0,1.15,-694.644,-1746.81)">
        <rect x="979.404" y="1518.96" width="450.122" height="277.608" style="fill:none;"/>
        <g transform="matrix(1.40994,0,0,0.869565,-273.852,179.944)">
            <g transform="matrix(1,0,0,1,-7,0)">
                <g transform="matrix(1,0,0,1,-145.744,60.9746)">
                    <path d="M1109.29,1640.62C1110.6,1644.53 1109.75,1649.75 1109.82,1654.6C1109.86,1656.41 1111.32,1657.68 1112.89,1657.84C1113.08,1657.86 1113.1,1657.87 1113.55,1657.88L1115.78,1657.9L1115.78,1665.33L1113.54,1665.32C1111.33,1665.29 1109.11,1664.87 1107.22,1663.78C1100.9,1660.15 1102.17,1651.64 1102.14,1644.15C1104.12,1643.9 1106.04,1643.27 1107.64,1642.11C1108.27,1641.65 1108.82,1641.15 1109.29,1640.62Z" style="fill:rgb(214,62,77);"/>
                </g>
                <g transform="matrix(50,0,0,50,950.9,1716.01)">
                    <path d="M0.382,-0.718L0.338,-0.718C0.329,-0.717 0.328,-0.717 0.325,-0.717C0.293,-0.714 0.264,-0.688 0.263,-0.652C0.261,-0.516 0.296,-0.365 0.195,-0.292C0.161,-0.267 0.117,-0.258 0.074,-0.257L0.027,-0.256L0.027,-0.405C0.063,-0.405 0.108,-0.392 0.11,-0.437C0.111,-0.532 0.1,-0.635 0.123,-0.717C0.137,-0.766 0.163,-0.808 0.211,-0.836C0.249,-0.857 0.294,-0.866 0.338,-0.866L0.382,-0.867L0.382,-0.718Z" style="fill:rgb(42,120,165);"/>
                </g>
            </g>
            <g transform="matrix(-1,1.22465e-16,-1.22465e-16,-1,2103,3398.99)">
                <g transform="matrix(1,0,0,1,-145.744,60.9746)">
                    <path d="M1109.29,1640.62C1110.6,1644.53 1109.75,1649.75 1109.82,1654.6C1109.86,1656.41 1111.32,1657.68 1112.89,1657.84C1113.08,1657.86 1113.1,1657.87 1113.55,1657.88L1115.78,1657.9L1115.78,1665.33L1113.54,1665.32C1111.33,1665.29 1109.11,1664.87 1107.22,1663.78C1100.9,1660.15 1102.17,1651.64 1102.14,1644.15C1104.12,1643.9 1106.04,1643.27 1107.64,1642.11C1108.27,1641.65 1108.82,1641.15 1109.29,1640.62Z" style="fill:rgb(42,120,165);"/>
                </g>
                <g transform="matrix(50,0,0,50,950.9,1716.01)">
                    <path d="M0.382,-0.718L0.338,-0.718C0.329,-0.717 0.328,-0.717 0.325,-0.717C0.293,-0.714 0.264,-0.688 0.263,-0.652C0.261,-0.516 0.296,-0.365 0.195,-0.292C0.161,-0.267 0.117,-0.258 0.074,-0.257L0.027,-0.256L0.027,-0.405C0.063,-0.405 0.108,-0.392 0.11,-0.437C0.111,-0.532 0.1,-0.635 0.123,-0.717C0.137,-0.766 0.163,-0.808 0.211,-0.836C0.249,-0.857 0.294,-0.866 0.338,-0.866L0.382,-0.867L0.382,-0.718Z" style="fill:rgb(214,62,77);"/>
                </g>
            </g>
            <g transform="matrix(50,0,0,50,968.917,1716.01)">
                <path d="M0.713,-0.307C0.713,-0.352 0.702,-0.387 0.681,-0.412C0.659,-0.436 0.629,-0.449 0.59,-0.449C0.55,-0.449 0.52,-0.437 0.498,-0.413C0.477,-0.389 0.466,-0.355 0.466,-0.311L0.436,-0.384C0.452,-0.426 0.475,-0.458 0.504,-0.481C0.533,-0.503 0.568,-0.514 0.608,-0.514C0.645,-0.514 0.677,-0.506 0.703,-0.49C0.729,-0.474 0.749,-0.45 0.763,-0.419C0.776,-0.389 0.783,-0.351 0.783,-0.308L0.783,0L0.713,0L0.713,-0.307ZM0.078,-0.507L0.148,-0.507L0.148,0L0.078,0L0.078,-0.507ZM0.396,-0.307C0.396,-0.352 0.385,-0.387 0.364,-0.412C0.342,-0.436 0.312,-0.449 0.272,-0.449C0.233,-0.449 0.203,-0.438 0.181,-0.415C0.159,-0.393 0.148,-0.361 0.148,-0.321L0.138,-0.418C0.155,-0.452 0.177,-0.477 0.205,-0.492C0.232,-0.507 0.264,-0.514 0.3,-0.514C0.335,-0.514 0.365,-0.506 0.39,-0.49C0.415,-0.474 0.434,-0.45 0.447,-0.419C0.459,-0.389 0.466,-0.351 0.466,-0.308L0.466,0L0.396,0L0.396,-0.307Z" style="fill:rgb(214,62,77);fill-rule:nonzero;"/>
            </g>
            <g transform="matrix(50,0,0,50,1011.74,1716.01)">
                <path d="M0.272,0.007C0.229,0.007 0.191,-0.001 0.16,-0.019C0.128,-0.036 0.105,-0.061 0.088,-0.094C0.072,-0.127 0.063,-0.167 0.063,-0.213L0.063,-0.296C0.063,-0.342 0.072,-0.381 0.088,-0.414C0.105,-0.447 0.128,-0.471 0.16,-0.489C0.191,-0.506 0.229,-0.514 0.272,-0.514C0.316,-0.514 0.354,-0.506 0.385,-0.489C0.417,-0.471 0.44,-0.447 0.457,-0.414C0.473,-0.381 0.481,-0.342 0.481,-0.296L0.481,-0.212C0.481,-0.166 0.473,-0.126 0.457,-0.094C0.44,-0.061 0.417,-0.036 0.385,-0.019C0.354,-0.001 0.316,0.007 0.272,0.007ZM0.272,-0.058C0.316,-0.058 0.351,-0.072 0.375,-0.098C0.399,-0.125 0.411,-0.163 0.411,-0.212L0.411,-0.296C0.411,-0.344 0.399,-0.382 0.375,-0.409C0.351,-0.435 0.316,-0.449 0.272,-0.449C0.228,-0.449 0.194,-0.435 0.17,-0.409C0.146,-0.382 0.134,-0.344 0.134,-0.296L0.134,-0.212C0.134,-0.163 0.146,-0.125 0.17,-0.098C0.194,-0.072 0.228,-0.058 0.272,-0.058Z" style="fill:rgb(214,62,77);fill-rule:nonzero;"/>
            </g>
            <g transform="matrix(50,0,0,50,1038.99,1716.01)">
                <path d="M0.078,-0.507L0.148,-0.507L0.148,0L0.078,0L0.078,-0.507ZM0.376,-0.416C0.366,-0.427 0.353,-0.435 0.337,-0.44C0.321,-0.446 0.303,-0.449 0.282,-0.449C0.24,-0.449 0.207,-0.437 0.184,-0.415C0.16,-0.392 0.148,-0.361 0.148,-0.321L0.138,-0.418C0.157,-0.449 0.181,-0.472 0.211,-0.489C0.241,-0.506 0.274,-0.514 0.31,-0.514C0.333,-0.514 0.354,-0.511 0.373,-0.504C0.392,-0.497 0.408,-0.488 0.422,-0.475L0.376,-0.416Z" style="fill:rgb(214,62,77);fill-rule:nonzero;"/>
            </g>
            <g transform="matrix(50,0,0,50,1060.32,1716.01)">
                <path d="M0.093,-0.576C0.093,-0.621 0.102,-0.654 0.122,-0.677C0.141,-0.699 0.17,-0.71 0.209,-0.71L0.292,-0.71L0.292,-0.645L0.221,-0.645C0.202,-0.645 0.187,-0.639 0.177,-0.628C0.168,-0.616 0.163,-0.599 0.163,-0.577L0.163,0L0.093,0L0.093,-0.576ZM0.039,-0.507L0.292,-0.507L0.292,-0.446L0.039,-0.446L0.039,-0.507Z" style="fill:rgb(214,62,77);fill-rule:nonzero;"/>
            </g>
            <g transform="matrix(50,0,0,50,1075.44,1716.01)">
                <path d="M0.286,0.007C0.239,0.007 0.199,-0.002 0.166,-0.019C0.132,-0.037 0.107,-0.063 0.09,-0.097C0.072,-0.131 0.063,-0.172 0.063,-0.22L0.063,-0.277C0.063,-0.327 0.072,-0.37 0.089,-0.405C0.105,-0.441 0.13,-0.468 0.162,-0.486C0.194,-0.505 0.232,-0.514 0.277,-0.514C0.319,-0.514 0.355,-0.505 0.385,-0.487C0.415,-0.469 0.438,-0.442 0.454,-0.407C0.47,-0.372 0.478,-0.33 0.478,-0.281L0.478,-0.223L0.111,-0.223L0.111,-0.286L0.412,-0.286L0.412,-0.291C0.412,-0.341 0.4,-0.38 0.377,-0.407C0.353,-0.435 0.32,-0.449 0.277,-0.449C0.23,-0.449 0.193,-0.434 0.167,-0.405C0.142,-0.376 0.129,-0.335 0.129,-0.282L0.129,-0.218C0.129,-0.167 0.143,-0.128 0.17,-0.1C0.197,-0.072 0.236,-0.058 0.286,-0.058C0.309,-0.058 0.332,-0.063 0.355,-0.073C0.378,-0.083 0.399,-0.096 0.417,-0.114L0.464,-0.068C0.44,-0.044 0.412,-0.026 0.38,-0.012C0.349,0.001 0.318,0.007 0.286,0.007Z" style="fill:rgb(42,120,165);fill-rule:nonzero;"/>
            </g>
            <g transform="matrix(50,0,0,50,1102.24,1716.01)">
                <path d="M0.272,0.007C0.229,0.007 0.191,-0.001 0.16,-0.019C0.128,-0.036 0.105,-0.061 0.088,-0.094C0.072,-0.127 0.063,-0.167 0.063,-0.213L0.063,-0.296C0.063,-0.342 0.072,-0.381 0.088,-0.414C0.105,-0.447 0.128,-0.471 0.16,-0.489C0.191,-0.506 0.229,-0.514 0.272,-0.514C0.316,-0.514 0.354,-0.506 0.385,-0.489C0.417,-0.471 0.44,-0.447 0.457,-0.414C0.473,-0.381 0.481,-0.342 0.481,-0.296L0.481,-0.212C0.481,-0.166 0.473,-0.126 0.457,-0.094C0.44,-0.061 0.417,-0.036 0.385,-0.019C0.354,-0.001 0.316,0.007 0.272,0.007ZM0.272,-0.058C0.316,-0.058 0.351,-0.072 0.375,-0.098C0.399,-0.125 0.411,-0.163 0.411,-0.212L0.411,-0.296C0.411,-0.344 0.399,-0.382 0.375,-0.409C0.351,-0.435 0.316,-0.449 0.272,-0.449C0.228,-0.449 0.194,-0.435 0.17,-0.409C0.146,-0.382 0.134,-0.344 0.134,-0.296L0.134,-0.212C0.134,-0.163 0.146,-0.125 0.17,-0.098C0.194,-0.072 0.228,-0.058 0.272,-0.058Z" style="fill:rgb(42,120,165);fill-rule:nonzero;"/>
            </g>
        </g>
        <g transform="matrix(1.40994,0,0,0.869565,941.305,1510.44)">
            <g transform="matrix(14.8728,0,0,14.8728,98.9303,224.163)">
                <path d="M0.155,-0.065L0.316,-0.065C0.382,-0.065 0.431,-0.081 0.464,-0.112C0.496,-0.142 0.513,-0.189 0.513,-0.25L0.513,-0.459C0.513,-0.521 0.496,-0.568 0.464,-0.598C0.431,-0.629 0.382,-0.645 0.316,-0.645L0.155,-0.645L0.155,-0.71L0.313,-0.71C0.373,-0.71 0.423,-0.701 0.463,-0.682C0.503,-0.663 0.533,-0.635 0.553,-0.597C0.573,-0.559 0.583,-0.512 0.583,-0.456L0.583,-0.254C0.583,-0.198 0.573,-0.151 0.553,-0.113C0.533,-0.075 0.503,-0.047 0.463,-0.028C0.423,-0.009 0.373,0 0.313,0L0.155,0L0.155,-0.065ZM0.088,-0.71L0.158,-0.71L0.158,0L0.088,0L0.088,-0.71Z" style="fill:rgb(89,89,89);fill-rule:nonzero;"/>
            </g>
            <g transform="matrix(14.8728,0,0,14.8728,113.45,224.163)">
                <path d="M0.287,-0.289L0.287,0L0.216,0L0.216,-0.289L-0.015,-0.71L0.062,-0.71L0.251,-0.355L0.441,-0.71L0.518,-0.71L0.287,-0.289Z" style="fill:rgb(89,89,89);fill-rule:nonzero;"/>
            </g>
            <g transform="matrix(14.8728,0,0,14.8728,125.762,224.163)">
                <path d="M0.088,-0.71L0.159,-0.71L0.571,-0.07L0.542,-0.09L0.542,-0.71L0.612,-0.71L0.612,0L0.541,0L0.12,-0.645L0.158,-0.617L0.158,0L0.088,0L0.088,-0.71Z" style="fill:rgb(89,89,89);fill-rule:nonzero;"/>
            </g>
            <g transform="matrix(14.8728,0,0,14.8728,140.79,224.163)">
                <path d="M0.281,-0.71L0.366,-0.71L0.628,0L0.55,0L0.324,-0.636L0.098,0L0.02,0L0.281,-0.71ZM0.14,-0.238L0.514,-0.238L0.514,-0.172L0.14,-0.172L0.14,-0.238Z" style="fill:rgb(89,89,89);fill-rule:nonzero;"/>
            </g>
            <g transform="matrix(14.8728,0,0,14.8728,155.178,224.163)">
                <path d="M0.618,-0.71L0.691,-0.71L0.691,0L0.621,0L0.621,-0.61L0.628,-0.579L0.415,-0.099L0.365,-0.099L0.151,-0.569L0.158,-0.61L0.158,0L0.088,0L0.088,-0.71L0.162,-0.71L0.39,-0.197L0.618,-0.71Z" style="fill:rgb(89,89,89);fill-rule:nonzero;"/>
            </g>
            <g transform="matrix(14.8728,0,0,14.8728,171.528,224.163)">
                <rect x="0.103" y="-0.71" width="0.07" height="0.71" style="fill:rgb(89,89,89);fill-rule:nonzero;"/>
            </g>
            <g transform="matrix(14.8728,0,0,14.8728,180.383,224.163)">
                <path d="M0.32,0.007C0.271,0.007 0.228,-0.004 0.191,-0.025C0.153,-0.047 0.125,-0.078 0.104,-0.118C0.083,-0.158 0.073,-0.205 0.073,-0.257L0.073,-0.452C0.073,-0.505 0.083,-0.551 0.104,-0.591C0.125,-0.631 0.153,-0.662 0.191,-0.684C0.228,-0.706 0.271,-0.717 0.32,-0.717C0.361,-0.717 0.398,-0.709 0.433,-0.692C0.467,-0.676 0.495,-0.652 0.518,-0.622C0.541,-0.591 0.557,-0.556 0.565,-0.516L0.495,-0.516C0.487,-0.543 0.474,-0.566 0.456,-0.587C0.439,-0.607 0.418,-0.623 0.394,-0.635C0.37,-0.646 0.346,-0.652 0.32,-0.652C0.285,-0.652 0.254,-0.644 0.228,-0.627C0.201,-0.61 0.18,-0.587 0.166,-0.557C0.151,-0.527 0.144,-0.492 0.144,-0.452L0.144,-0.257C0.144,-0.218 0.151,-0.183 0.166,-0.153C0.18,-0.122 0.201,-0.099 0.228,-0.083C0.254,-0.066 0.285,-0.058 0.32,-0.058C0.346,-0.058 0.37,-0.063 0.394,-0.074C0.418,-0.085 0.439,-0.101 0.456,-0.121C0.474,-0.142 0.487,-0.166 0.495,-0.194L0.565,-0.194C0.557,-0.154 0.541,-0.119 0.518,-0.088C0.495,-0.058 0.466,-0.034 0.432,-0.018C0.398,-0.001 0.361,0.007 0.32,0.007Z" style="fill:rgb(89,89,89);fill-rule:nonzero;"/>
            </g>
            <g transform="matrix(14.8728,0,0,14.8728,206.605,224.163)">
                <path d="M0.088,-0.71L0.158,-0.71L0.158,0L0.088,0L0.088,-0.71ZM0.137,-0.379L0.481,-0.379L0.481,-0.313L0.137,-0.313L0.137,-0.379ZM0.137,-0.71L0.535,-0.71L0.535,-0.645L0.137,-0.645L0.137,-0.71Z" style="fill:rgb(89,89,89);fill-rule:nonzero;"/>
            </g>
            <g transform="matrix(14.8728,0,0,14.8728,219.679,224.163)">
                <path d="M0.323,0.007C0.27,0.007 0.225,-0.003 0.188,-0.023C0.15,-0.044 0.122,-0.074 0.103,-0.113C0.083,-0.152 0.073,-0.199 0.073,-0.254L0.073,-0.456C0.073,-0.511 0.083,-0.558 0.103,-0.597C0.122,-0.636 0.15,-0.666 0.188,-0.687C0.225,-0.707 0.27,-0.717 0.323,-0.717C0.375,-0.717 0.42,-0.707 0.458,-0.687C0.495,-0.666 0.523,-0.636 0.543,-0.597C0.563,-0.558 0.572,-0.511 0.572,-0.456L0.572,-0.254C0.572,-0.199 0.563,-0.152 0.543,-0.113C0.523,-0.074 0.495,-0.044 0.458,-0.023C0.42,-0.003 0.375,0.007 0.323,0.007ZM0.323,-0.058C0.361,-0.058 0.393,-0.066 0.42,-0.081C0.447,-0.096 0.467,-0.118 0.481,-0.147C0.495,-0.176 0.502,-0.21 0.502,-0.251L0.502,-0.459C0.502,-0.5 0.495,-0.534 0.481,-0.563C0.467,-0.592 0.447,-0.614 0.42,-0.629C0.393,-0.644 0.361,-0.652 0.323,-0.652C0.285,-0.652 0.253,-0.644 0.226,-0.629C0.199,-0.614 0.179,-0.592 0.165,-0.563C0.151,-0.534 0.144,-0.5 0.144,-0.459L0.144,-0.251C0.144,-0.21 0.151,-0.176 0.165,-0.147C0.179,-0.118 0.199,-0.096 0.226,-0.081C0.253,-0.066 0.285,-0.058 0.323,-0.058Z" style="fill:rgb(89,89,89);fill-rule:nonzero;"/>
            </g>
            <g transform="matrix(14.8728,0,0,14.8728,233.894,224.163)">
                <path d="M0.131,-0.366L0.374,-0.366C0.4,-0.366 0.423,-0.372 0.443,-0.383C0.463,-0.395 0.479,-0.411 0.49,-0.432C0.5,-0.453 0.506,-0.478 0.506,-0.505C0.506,-0.533 0.501,-0.557 0.49,-0.579C0.479,-0.6 0.464,-0.616 0.444,-0.628C0.424,-0.639 0.4,-0.645 0.374,-0.645L0.131,-0.645L0.131,-0.71L0.37,-0.71C0.411,-0.71 0.447,-0.702 0.478,-0.685C0.509,-0.668 0.533,-0.644 0.55,-0.613C0.567,-0.582 0.576,-0.546 0.576,-0.505C0.576,-0.465 0.567,-0.429 0.55,-0.398C0.533,-0.367 0.509,-0.343 0.478,-0.326C0.446,-0.309 0.41,-0.3 0.37,-0.3L0.131,-0.3L0.131,-0.366ZM0.088,-0.71L0.158,-0.71L0.158,0L0.088,0L0.088,-0.71ZM0.359,-0.322L0.424,-0.345L0.605,0L0.521,0L0.359,-0.322Z" style="fill:rgb(89,89,89);fill-rule:nonzero;"/>
            </g>
            <g transform="matrix(14.8728,0,0,14.8728,248.348,224.163)">
                <path d="M0.618,-0.71L0.691,-0.71L0.691,0L0.621,0L0.621,-0.61L0.628,-0.579L0.415,-0.099L0.365,-0.099L0.151,-0.569L0.158,-0.61L0.158,0L0.088,0L0.088,-0.71L0.162,-0.71L0.39,-0.197L0.618,-0.71Z" style="fill:rgb(89,89,89);fill-rule:nonzero;"/>
            </g>
            <g transform="matrix(14.8728,0,0,14.8728,264.698,224.163)">
                <path d="M0.301,0.007C0.267,0.007 0.235,0.004 0.204,-0.002C0.174,-0.009 0.145,-0.019 0.118,-0.032C0.092,-0.045 0.067,-0.061 0.044,-0.081L0.086,-0.136C0.116,-0.11 0.149,-0.091 0.185,-0.078C0.22,-0.065 0.259,-0.058 0.301,-0.058C0.362,-0.058 0.409,-0.07 0.443,-0.094C0.476,-0.118 0.493,-0.152 0.493,-0.196L0.493,-0.196C0.493,-0.223 0.485,-0.245 0.471,-0.261C0.456,-0.278 0.438,-0.29 0.415,-0.298C0.392,-0.306 0.362,-0.313 0.326,-0.32L0.319,-0.322L0.305,-0.325C0.255,-0.334 0.215,-0.344 0.186,-0.354C0.156,-0.365 0.13,-0.382 0.109,-0.406C0.088,-0.431 0.078,-0.465 0.078,-0.509L0.078,-0.509C0.078,-0.553 0.087,-0.591 0.107,-0.622C0.127,-0.653 0.156,-0.677 0.193,-0.693C0.231,-0.709 0.277,-0.717 0.33,-0.717C0.355,-0.717 0.379,-0.715 0.404,-0.709C0.429,-0.703 0.453,-0.695 0.477,-0.684C0.501,-0.673 0.524,-0.66 0.548,-0.643L0.506,-0.588C0.476,-0.609 0.446,-0.625 0.417,-0.636C0.387,-0.647 0.358,-0.652 0.33,-0.652C0.272,-0.652 0.227,-0.64 0.195,-0.615C0.163,-0.591 0.147,-0.556 0.147,-0.512L0.147,-0.512C0.147,-0.485 0.155,-0.464 0.171,-0.448C0.187,-0.433 0.207,-0.422 0.23,-0.414C0.254,-0.407 0.286,-0.399 0.327,-0.391L0.347,-0.386C0.392,-0.377 0.429,-0.367 0.458,-0.355C0.488,-0.343 0.513,-0.325 0.532,-0.3C0.552,-0.275 0.562,-0.242 0.562,-0.199L0.562,-0.198C0.562,-0.155 0.552,-0.118 0.531,-0.087C0.511,-0.056 0.481,-0.033 0.442,-0.017C0.403,-0.001 0.356,0.007 0.301,0.007Z" style="fill:rgb(89,89,89);fill-rule:nonzero;"/>
            </g>
        </g>
    </g>
</svg>
